<?xml version="1.0" encoding="UTF-8"?>
<!DOCTYPE svg PUBLIC "-//W3C//DTD SVG 1.1//EN" "http://www.w3.org/Graphics/SVG/1.1/DTD/svg11.dtd">
<svg xmlns="http://www.w3.org/2000/svg" version="1.1" width="268px" height="427px" style="shape-rendering:geometricPrecision; text-rendering:geometricPrecision; image-rendering:optimizeQuality; fill-rule:evenodd; clip-rule:evenodd" xmlns:xlink="http://www.w3.org/1999/xlink">
<g><path style="opacity:1" fill="#fefefe" d="M -0.5,-0.5 C 88.8333,-0.5 178.167,-0.5 267.5,-0.5C 267.5,61.8333 267.5,124.167 267.5,186.5C 260.889,182.794 253.889,179.961 246.5,178C 242.806,175.822 239.139,173.655 235.5,171.5C 234.971,169.417 233.971,167.583 232.5,166C 235.167,163 235.167,160 232.5,157C 227.523,155.893 222.523,154.893 217.5,154C 198.86,138.363 182.694,120.529 169,100.5C 162.474,89.4368 155.974,78.4368 149.5,67.5C 148.467,65.9145 147.134,64.5812 145.5,63.5C 144.943,61.0509 144.943,58.7175 145.5,56.5C 150.544,60.3445 156.211,61.8445 162.5,61C 164.853,58.3003 166.353,55.1336 167,51.5C 167.74,43.1316 167.574,34.7982 166.5,26.5C 162.55,9.37588 151.884,1.20922 134.5,2C 130.234,4.38086 126.068,6.88086 122,9.5C 117.261,6.87997 112.427,4.37997 107.5,2C 90.8452,0.321857 83.0119,7.82186 84,24.5C 87.5228,29.1869 88.3561,34.3535 86.5,40C 87.1973,46.3637 90.5307,50.697 96.5,53C 102.325,53.1486 107.992,54.1486 113.5,56C 119.704,57.1855 125.371,56.0189 130.5,52.5C 130.167,54.5 129.833,56.5 129.5,58.5C 83.4066,87.7898 52.0733,128.623 35.5,181C 32.6836,182.983 30.0169,185.15 27.5,187.5C 28.7134,190.095 30.0468,192.595 31.5,195C 29.5311,197.705 29.1978,200.538 30.5,203.5C 28.4203,207.086 25.7537,210.253 22.5,213C 16.4437,216.686 10.277,220.186 4,223.5C 3.39632,227.588 5.22966,230.088 9.5,231C 16.8189,230.548 23.9855,229.048 31,226.5C 34.0857,228.298 36.9191,230.464 39.5,233C 41.7132,233.456 42.7132,232.456 42.5,230C 39.3158,221.939 40.3158,214.439 45.5,207.5C 46.9305,207.421 48.2638,207.754 49.5,208.5C 58.6909,182.27 72.3576,158.77 90.5,138C 93.3773,135.714 94.7107,136.547 94.5,140.5C 95.5741,151.484 95.7408,162.484 95,173.5C 90.7039,177.567 89.5372,182.4 91.5,188C 80.2257,214.383 67.7257,240.216 54,265.5C 49.1258,276.777 46.6258,288.443 46.5,300.5C 52.2604,298.601 58.0937,296.935 64,295.5C 65.0588,295.63 65.8921,296.13 66.5,297C 52.9661,310.866 39.7994,325.032 27,339.5C 26.6155,341.197 26.7822,342.863 27.5,344.5C 23.1667,347.833 18.8333,351.167 14.5,354.5C 12.5185,352.266 10.1852,352.1 7.5,354C 4.57978,355.946 1.91311,358.113 -0.5,360.5C -0.5,240.167 -0.5,119.833 -0.5,-0.5 Z"/></g>
<g><path style="opacity:1" fill="#2a4251" d="M 166.5,26.5 C 164.282,22.6212 160.948,20.2879 156.5,19.5C 155.228,19.5698 154.062,19.9032 153,20.5C 151.413,26.172 148.913,31.3387 145.5,36C 141.102,37.3753 137.768,36.0419 135.5,32C 131.801,31.1766 129.467,32.6766 128.5,36.5C 130.017,39.168 131.684,41.668 133.5,44C 132.966,47.1077 131.966,49.941 130.5,52.5C 125.371,56.0189 119.704,57.1855 113.5,56C 107.992,54.1486 102.325,53.1486 96.5,53C 90.5307,50.697 87.1973,46.3637 86.5,40C 88.3561,34.3535 87.5228,29.1869 84,24.5C 83.0119,7.82186 90.8452,0.321857 107.5,2C 112.427,4.37997 117.261,6.87997 122,9.5C 126.068,6.88086 130.234,4.38086 134.5,2C 151.884,1.20922 162.55,9.37588 166.5,26.5 Z"/></g>
<g><path style="opacity:1" fill="#0a0a0a" d="M 166.5,26.5 C 167.574,34.7982 167.74,43.1316 167,51.5C 166.353,55.1336 164.853,58.3003 162.5,61C 156.211,61.8445 150.544,60.3445 145.5,56.5C 144.943,58.7175 144.943,61.0509 145.5,63.5C 145.5,64.5 145.5,65.5 145.5,66.5C 142.5,66.5 139.5,66.5 136.5,66.5C 136.5,65.1667 136.5,63.8333 136.5,62.5C 134.167,62.5 131.833,62.5 129.5,62.5C 129.5,61.1667 129.5,59.8333 129.5,58.5C 129.833,56.5 130.167,54.5 130.5,52.5C 131.966,49.941 132.966,47.1077 133.5,44C 131.684,41.668 130.017,39.168 128.5,36.5C 129.467,32.6766 131.801,31.1766 135.5,32C 137.768,36.0419 141.102,37.3753 145.5,36C 148.913,31.3387 151.413,26.172 153,20.5C 154.062,19.9032 155.228,19.5698 156.5,19.5C 160.948,20.2879 164.282,22.6212 166.5,26.5 Z"/></g>
<g><path style="opacity:1" fill="#8ac4cb" d="M 129.5,58.5 C 129.5,59.8333 129.5,61.1667 129.5,62.5C 131.833,62.5 134.167,62.5 136.5,62.5C 136.5,63.8333 136.5,65.1667 136.5,66.5C 137.003,74.8601 137.836,83.1935 139,91.5C 145.733,122.53 152.566,153.53 159.5,184.5C 161.5,184.5 163.5,184.5 165.5,184.5C 166.156,185.622 166.489,186.955 166.5,188.5C 165.983,194.029 165.316,199.529 164.5,205C 169.659,235.789 169.825,266.622 165,297.5C 158.433,299.327 151.599,300.494 144.5,301C 141.891,304.051 140.225,307.551 139.5,311.5C 117.11,338.066 94.1097,364.233 70.5,390C 67.3578,389.912 64.8578,388.412 63,385.5C 55.8588,376.058 48.3588,366.891 40.5,358C 39.1807,357.805 37.8474,357.972 36.5,358.5C 37.7997,357.399 38.2997,356.066 38,354.5C 35.2681,350.266 31.7681,346.933 27.5,344.5C 26.7822,342.863 26.6155,341.197 27,339.5C 39.7994,325.032 52.9661,310.866 66.5,297C 65.8921,296.13 65.0588,295.63 64,295.5C 58.0937,296.935 52.2604,298.601 46.5,300.5C 46.6258,288.443 49.1258,276.777 54,265.5C 67.7257,240.216 80.2257,214.383 91.5,188C 89.5372,182.4 90.7039,177.567 95,173.5C 95.7408,162.484 95.5741,151.484 94.5,140.5C 94.7107,136.547 93.3773,135.714 90.5,138C 72.3576,158.77 58.6909,182.27 49.5,208.5C 48.2638,207.754 46.9305,207.421 45.5,207.5C 40.811,205.077 35.811,203.744 30.5,203.5C 29.1978,200.538 29.5311,197.705 31.5,195C 30.0468,192.595 28.7134,190.095 27.5,187.5C 30.0169,185.15 32.6836,182.983 35.5,181C 52.0733,128.623 83.4066,87.7898 129.5,58.5 Z"/></g>
<g><path style="opacity:1" fill="#1c1b4a" d="M 145.5,63.5 C 147.134,64.5812 148.467,65.9145 149.5,67.5C 149.234,80.1391 151.068,92.4725 155,104.5C 160.389,124.51 167.223,143.843 175.5,162.5C 178.255,168.542 179.089,174.876 178,181.5C 177.617,182.056 177.117,182.389 176.5,182.5C 172.613,182.646 168.946,183.313 165.5,184.5C 163.5,184.5 161.5,184.5 159.5,184.5C 152.566,153.53 145.733,122.53 139,91.5C 137.836,83.1935 137.003,74.8601 136.5,66.5C 139.5,66.5 142.5,66.5 145.5,66.5C 145.5,65.5 145.5,64.5 145.5,63.5 Z"/></g>
<g><path style="opacity:1" fill="#6fa2ad" d="M 149.5,67.5 C 155.974,78.4368 162.474,89.4368 169,100.5C 182.694,120.529 198.86,138.363 217.5,154C 222.523,154.893 227.523,155.893 232.5,157C 235.167,160 235.167,163 232.5,166C 233.971,167.583 234.971,169.417 235.5,171.5C 232.163,173.528 229.83,176.528 228.5,180.5C 228.863,181.183 229.196,181.85 229.5,182.5C 228.185,183.476 226.852,184.476 225.5,185.5C 208.642,177.821 192.142,169.488 176,160.5C 175.536,161.094 175.369,161.761 175.5,162.5C 167.223,143.843 160.389,124.51 155,104.5C 151.068,92.4725 149.234,80.1391 149.5,67.5 Z"/></g>
<g><path style="opacity:1" fill="#7eb4ba" d="M 126.5,68.5 C 127.043,68.56 127.376,68.8933 127.5,69.5C 126.028,72.9448 124.694,76.4448 123.5,80C 127.153,84.322 130.82,88.6553 134.5,93C 130.984,96.3486 127.651,99.8486 124.5,103.5C 130.434,112.043 135.268,121.043 139,130.5C 132.5,121.5 126,112.5 119.5,103.5C 122.687,100.147 125.687,96.6472 128.5,93C 125.309,89.31 122.309,85.4767 119.5,81.5C 122.1,77.299 124.434,72.9656 126.5,68.5 Z"/></g>
<g><path style="opacity:1" fill="#567d81" d="M 139.5,151.5 C 145.488,151.664 146.821,154.164 143.5,159C 141.888,159.72 140.388,159.554 139,158.5C 138.297,156.071 138.463,153.738 139.5,151.5 Z"/></g>
<g><path style="opacity:1" fill="#fefefe" d="M 229.5,182.5 C 231.359,183.594 233.359,184.427 235.5,185C 239.375,190.376 244.042,194.876 249.5,198.5C 249.56,199.043 249.893,199.376 250.5,199.5C 251.797,197.027 251.797,194.693 250.5,192.5C 250.577,191.25 251.244,190.417 252.5,190C 257.489,189.501 262.489,189.334 267.5,189.5C 267.5,268.5 267.5,347.5 267.5,426.5C 178.167,426.5 88.8333,426.5 -0.5,426.5C -0.5,406.167 -0.5,385.833 -0.5,365.5C 11.5955,377.683 22.7621,390.683 33,404.5C 37.209,407.602 40.709,407.102 43.5,403C 37.5346,389.937 32.8679,376.437 29.5,362.5C 31.9962,361.42 34.3295,360.086 36.5,358.5C 37.8474,357.972 39.1807,357.805 40.5,358C 48.3588,366.891 55.8588,376.058 63,385.5C 64.8578,388.412 67.3578,389.912 70.5,390C 94.1097,364.233 117.11,338.066 139.5,311.5C 145.258,342.044 150.591,372.71 155.5,403.5C 171.15,401.668 186.816,400.001 202.5,398.5C 203.566,400.701 204.233,403.035 204.5,405.5C 203.7,407.682 202.2,409.349 200,410.5C 199.032,415.36 199.532,420.026 201.5,424.5C 221.158,425.666 240.825,425.833 260.5,425C 261.833,422.333 261.833,419.667 260.5,417C 247.367,413.932 235.034,408.932 223.5,402C 221.866,401.506 220.199,401.34 218.5,401.5C 218.5,400.5 218.5,399.5 218.5,398.5C 219.058,397.21 220.058,396.377 221.5,396C 206.724,325.395 191.391,254.895 175.5,184.5C 175.863,183.817 176.196,183.15 176.5,182.5C 177.117,182.389 177.617,182.056 178,181.5C 179.089,174.876 178.255,168.542 175.5,162.5C 175.369,161.761 175.536,161.094 176,160.5C 192.142,169.488 208.642,177.821 225.5,185.5C 226.852,184.476 228.185,183.476 229.5,182.5 Z"/></g>
<g><path style="opacity:1" fill="#1a1a1a" d="M 235.5,171.5 C 239.139,173.655 242.806,175.822 246.5,178C 253.889,179.961 260.889,182.794 267.5,186.5C 267.5,187.5 267.5,188.5 267.5,189.5C 262.489,189.334 257.489,189.501 252.5,190C 251.244,190.417 250.577,191.25 250.5,192.5C 250.795,194.735 250.461,196.735 249.5,198.5C 244.042,194.876 239.375,190.376 235.5,185C 233.359,184.427 231.359,183.594 229.5,182.5C 229.196,181.85 228.863,181.183 228.5,180.5C 229.83,176.528 232.163,173.528 235.5,171.5 Z"/></g>
<g><path style="opacity:1" fill="#587e83" d="M 144.5,175.5 C 149.207,175.431 150.873,177.597 149.5,182C 143.013,183.158 141.347,180.991 144.5,175.5 Z"/></g>
<g><path style="opacity:1" fill="#6ba2ad" d="M 176.5,182.5 C 176.196,183.15 175.863,183.817 175.5,184.5C 191.391,254.895 206.724,325.395 221.5,396C 220.058,396.377 219.058,397.21 218.5,398.5C 213.234,396.208 207.9,396.208 202.5,398.5C 186.816,400.001 171.15,401.668 155.5,403.5C 150.591,372.71 145.258,342.044 139.5,311.5C 140.225,307.551 141.891,304.051 144.5,301C 151.599,300.494 158.433,299.327 165,297.5C 169.825,266.622 169.659,235.789 164.5,205C 165.316,199.529 165.983,194.029 166.5,188.5C 166.489,186.955 166.156,185.622 165.5,184.5C 168.946,183.313 172.613,182.646 176.5,182.5 Z"/></g>
<g><path style="opacity:1" fill="#858585" d="M 250.5,192.5 C 251.797,194.693 251.797,197.027 250.5,199.5C 249.893,199.376 249.56,199.043 249.5,198.5C 250.461,196.735 250.795,194.735 250.5,192.5 Z"/></g>
<g><path style="opacity:1" fill="#587f84" d="M 145.5,199.5 C 149.06,198.891 151.06,200.391 151.5,204C 150.281,207.345 148.114,208.179 145,206.5C 142.912,203.956 143.079,201.623 145.5,199.5 Z"/></g>
<g><path style="opacity:1" fill="#171717" d="M 30.5,203.5 C 35.811,203.744 40.811,205.077 45.5,207.5C 40.3158,214.439 39.3158,221.939 42.5,230C 42.7132,232.456 41.7132,233.456 39.5,233C 36.9191,230.464 34.0857,228.298 31,226.5C 23.9855,229.048 16.8189,230.548 9.5,231C 5.22966,230.088 3.39632,227.588 4,223.5C 10.277,220.186 16.4437,216.686 22.5,213C 25.7537,210.253 28.4203,207.086 30.5,203.5 Z"/></g>
<g><path style="opacity:1" fill="#131414" d="M 27.5,344.5 C 31.7681,346.933 35.2681,350.266 38,354.5C 38.2997,356.066 37.7997,357.399 36.5,358.5C 34.3295,360.086 31.9962,361.42 29.5,362.5C 21.4839,365.327 16.4839,362.66 14.5,354.5C 18.8333,351.167 23.1667,347.833 27.5,344.5 Z"/></g>
<g><path style="opacity:1" fill="#e5e5e5" d="M 14.5,354.5 C 16.4839,362.66 21.4839,365.327 29.5,362.5C 32.8679,376.437 37.5346,389.937 43.5,403C 40.709,407.102 37.209,407.602 33,404.5C 22.7621,390.683 11.5955,377.683 -0.5,365.5C -0.5,363.833 -0.5,362.167 -0.5,360.5C 1.91311,358.113 4.57978,355.946 7.5,354C 10.1852,352.1 12.5185,352.266 14.5,354.5 Z"/></g>
<g><path style="opacity:1" fill="#111313" d="M 218.5,398.5 C 218.5,399.5 218.5,400.5 218.5,401.5C 219.394,406.646 217.228,409.313 212,409.5C 208.747,409.263 206.247,407.929 204.5,405.5C 204.233,403.035 203.566,400.701 202.5,398.5C 207.9,396.208 213.234,396.208 218.5,398.5 Z"/></g>
<g><path style="opacity:1" fill="#e6e6e6" d="M 218.5,401.5 C 220.199,401.34 221.866,401.506 223.5,402C 235.034,408.932 247.367,413.932 260.5,417C 261.833,419.667 261.833,422.333 260.5,425C 240.825,425.833 221.158,425.666 201.5,424.5C 199.532,420.026 199.032,415.36 200,410.5C 202.2,409.349 203.7,407.682 204.5,405.5C 206.247,407.929 208.747,409.263 212,409.5C 217.228,409.313 219.394,406.646 218.5,401.5 Z"/></g>
</svg>
