<?xml version="1.0" encoding="UTF-8"?>
<!DOCTYPE svg PUBLIC "-//W3C//DTD SVG 1.1//EN" "http://www.w3.org/Graphics/SVG/1.1/DTD/svg11.dtd">
<svg xmlns="http://www.w3.org/2000/svg" version="1.1" width="266px" height="419px" style="shape-rendering:geometricPrecision; text-rendering:geometricPrecision; image-rendering:optimizeQuality; fill-rule:evenodd; clip-rule:evenodd" xmlns:xlink="http://www.w3.org/1999/xlink">
<g><path style="opacity:1" fill="#2a4252" d="M 118.5,-0.5 C 119.833,-0.5 121.167,-0.5 122.5,-0.5C 125.023,0.384409 127.69,1.21774 130.5,2C 133.079,3.07568 134.746,4.90902 135.5,7.5C 135.66,9.15298 136.326,10.4863 137.5,11.5C 138.645,15.3112 138.812,19.3112 138,23.5C 135.947,28.4353 133.78,33.2687 131.5,38C 132.694,42.8062 133.694,47.6396 134.5,52.5C 132.031,53.3171 129.365,53.8171 126.5,54C 125.748,54.6708 125.414,55.5041 125.5,56.5C 121.946,56.849 118.613,56.849 115.5,56.5C 116.738,54.7857 117.405,52.7857 117.5,50.5C 118.776,49.6136 118.776,48.6136 117.5,47.5C 116.893,47.6236 116.56,47.9569 116.5,48.5C 111.545,51.4301 106.212,52.5968 100.5,52C 98.0622,49.7051 96.5622,46.8717 96,43.5C 93.7045,31.8669 94.7045,20.5336 99,9.5C 104.266,3.58957 110.766,0.25624 118.5,-0.5 Z"/></g>
<g><path style="opacity:0.376" fill="#98a4ac" d="M 135.5,7.5 C 137.104,8.28696 137.771,9.6203 137.5,11.5C 136.326,10.4863 135.66,9.15298 135.5,7.5 Z"/></g>
<g><path style="opacity:0.475" fill="#b1bbc0" d="M 116.5,48.5 C 116.56,47.9569 116.893,47.6236 117.5,47.5C 118.776,48.6136 118.776,49.6136 117.5,50.5C 117.672,49.5084 117.338,48.8417 116.5,48.5 Z"/></g>
<g><path style="opacity:1" fill="#dde2e8" d="M 134.5,52.5 C 172.411,76.9266 199.577,110.26 216,152.5C 220.601,164.636 224.601,176.97 228,189.5C 228.722,192.261 228.555,194.927 227.5,197.5C 222.177,197.323 217.511,198.656 213.5,201.5C 211.533,201.739 209.699,201.406 208,200.5C 200.497,177.493 189.83,156.16 176,136.5C 173.667,134.167 171.333,131.833 169,129.5C 177.23,153.194 184.897,177.194 192,201.5C 199.613,227.379 203.78,253.713 204.5,280.5C 200.5,281.833 196.5,281.833 192.5,280.5C 191.702,280.957 191.369,281.624 191.5,282.5C 190.711,282.217 190.044,281.717 189.5,281C 164.169,280.5 138.836,280.333 113.5,280.5C 108.456,280.827 103.456,280.494 98.5,279.5C 101.305,270.614 103.638,261.614 105.5,252.5C 111.202,226.25 114.868,199.583 116.5,172.5C 117.434,171.432 117.768,170.099 117.5,168.5C 120.608,131.203 123.275,93.8693 125.5,56.5C 125.414,55.5041 125.748,54.6708 126.5,54C 129.365,53.8171 132.031,53.3171 134.5,52.5 Z"/></g>
<g><path style="opacity:1" fill="#333438" d="M 115.5,56.5 C 118.613,56.849 121.946,56.849 125.5,56.5C 123.275,93.8693 120.608,131.203 117.5,168.5C 116.596,169.209 116.263,170.209 116.5,171.5C 113.833,171.5 111.167,171.5 108.5,171.5C 104.833,171.5 101.167,171.5 97.5,171.5C 94.0032,170.598 90.3366,169.931 86.5,169.5C 86.1667,168.5 85.5,167.833 84.5,167.5C 84.3107,163.963 84.9774,160.63 86.5,157.5C 100.477,124.921 110.144,91.2543 115.5,56.5 Z"/></g>
<g><path style="opacity:0.999" fill="#c6cfd6" d="M 115.5,56.5 C 110.144,91.2543 100.477,124.921 86.5,157.5C 73.0204,165.743 59.3537,173.743 45.5,181.5C 44.3578,180.174 43.0245,179.174 41.5,178.5C 41.8039,177.85 42.1373,177.183 42.5,176.5C 40.7997,173.961 39.2997,171.295 38,168.5C 36.9887,167.663 35.8221,167.33 34.5,167.5C 35.0899,166.234 35.5899,164.901 36,163.5C 70.7157,133.963 96.2157,97.9631 112.5,55.5C 113.791,55.2627 114.791,55.596 115.5,56.5 Z"/></g>
<g><path style="opacity:0.999" fill="#324958" d="M 34.5,167.5 C 35.8221,167.33 36.9887,167.663 38,168.5C 39.2997,171.295 40.7997,173.961 42.5,176.5C 42.1373,177.183 41.8039,177.85 41.5,178.5C 35.6949,181.41 31.1949,185.743 28,191.5C 26.2609,193.741 24.0942,195.408 21.5,196.5C 19.567,194.428 19.567,192.095 21.5,189.5C 21.2907,188.914 20.9574,188.414 20.5,188C 17.1832,187.502 13.8499,187.335 10.5,187.5C 8.26465,187.795 6.26465,187.461 4.5,186.5C 5.03118,184.376 6.36451,182.876 8.5,182C 15.3786,178.394 22.3786,175.061 29.5,172C 31.0375,170.293 32.7041,168.793 34.5,167.5 Z"/></g>
<g><path style="opacity:0.122" fill="#bebebf" d="M 84.5,167.5 C 85.5,167.833 86.1667,168.5 86.5,169.5C 85.1667,169.5 84.5,168.833 84.5,167.5 Z"/></g>
<g><path style="opacity:1" fill="#6ba2ad" d="M 86.5,169.5 C 90.3366,169.931 94.0032,170.598 97.5,171.5C 96.8401,172.964 96.5068,174.631 96.5,176.5C 99.3554,201.867 102.355,227.2 105.5,252.5C 103.638,261.614 101.305,270.614 98.5,279.5C 103.456,280.494 108.456,280.827 113.5,280.5C 116.005,286.513 119.171,292.179 123,297.5C 123.49,298.793 123.657,300.127 123.5,301.5C 118.275,332.518 112.941,363.518 107.5,394.5C 91.8761,392.504 76.2094,390.838 60.5,389.5C 55.7498,387.969 50.7498,387.302 45.5,387.5C 44.791,386.596 43.791,386.263 42.5,386.5C 42.5,385.5 42.5,384.5 42.5,383.5C 57.2623,312.52 72.5957,241.686 88.5,171C 87.5842,170.722 86.9175,170.222 86.5,169.5 Z"/></g>
<g><path style="opacity:1" fill="#8ac5cc" d="M 97.5,171.5 C 101.167,171.5 104.833,171.5 108.5,171.5C 110.948,172.473 113.615,172.806 116.5,172.5C 114.868,199.583 111.202,226.25 105.5,252.5C 102.355,227.2 99.3554,201.867 96.5,176.5C 96.5068,174.631 96.8401,172.964 97.5,171.5 Z"/></g>
<g><path style="opacity:1" fill="#627a7f" d="M 117.5,168.5 C 117.768,170.099 117.434,171.432 116.5,172.5C 113.615,172.806 110.948,172.473 108.5,171.5C 111.167,171.5 113.833,171.5 116.5,171.5C 116.263,170.209 116.596,169.209 117.5,168.5 Z"/></g>
<g><path style="opacity:0.476" fill="#a6b0b7" d="M 4.5,186.5 C 6.26465,187.461 8.26465,187.795 10.5,187.5C 8.30655,188.797 5.97322,188.797 3.5,187.5C 3.62358,186.893 3.95691,186.56 4.5,186.5 Z"/></g>
<g><path style="opacity:0.999" fill="#314958" d="M 227.5,197.5 C 228.536,200.401 230.203,202.901 232.5,205C 239.667,209.5 246.833,214 254,218.5C 254.667,219.833 254.667,221.167 254,222.5C 249.266,226.307 244.099,227.14 238.5,225C 234.382,223.295 230.215,221.795 226,220.5C 222.642,223.358 219.142,226.025 215.5,228.5C 215.167,227.667 214.833,226.833 214.5,226C 215.69,221.883 216.69,217.716 217.5,213.5C 216.721,209.285 215.388,205.285 213.5,201.5C 217.511,198.656 222.177,197.323 227.5,197.5 Z"/></g>
<g><path style="opacity:1" fill="#8bc5cc" d="M 113.5,280.5 C 138.836,280.333 164.169,280.5 189.5,281C 190.044,281.717 190.711,282.217 191.5,282.5C 206.848,298.515 221.848,314.848 236.5,331.5C 236.058,332.739 235.391,333.739 234.5,334.5C 230.487,338.515 226.821,342.848 223.5,347.5C 214.198,358.31 205.031,369.31 196,380.5C 194.951,381.517 193.784,381.684 192.5,381C 168.463,355.149 145.463,328.649 123.5,301.5C 123.657,300.127 123.49,298.793 123,297.5C 119.171,292.179 116.005,286.513 113.5,280.5 Z"/></g>
<g><path style="opacity:1" fill="#2c4454" d="M 234.5,334.5 C 239.167,338.167 243.833,341.833 248.5,345.5C 246.226,353.8 241.226,356.467 233.5,353.5C 230.996,352.416 228.663,351.083 226.5,349.5C 226.027,348.094 225.027,347.427 223.5,347.5C 226.821,342.848 230.487,338.515 234.5,334.5 Z"/></g>
<g><path style="opacity:0.987" fill="#e5e5e5" d="M 233.5,353.5 C 241.226,356.467 246.226,353.8 248.5,345.5C 248.866,344.305 249.699,343.639 251,343.5C 256.056,344.552 260.056,347.219 263,351.5C 263.667,352.833 263.667,354.167 263,355.5C 250.833,369.667 238.667,383.833 226.5,398C 222.801,398.823 220.467,397.323 219.5,393.5C 225.537,380.725 230.204,367.392 233.5,353.5 Z"/></g>
<g><path style="opacity:0.51" fill="#98a4ac" d="M 223.5,347.5 C 225.027,347.427 226.027,348.094 226.5,349.5C 224.973,349.573 223.973,348.906 223.5,347.5 Z"/></g>
<g><path style="opacity:1" fill="#2a4353" d="M 45.5,387.5 C 50.7498,387.302 55.7498,387.969 60.5,389.5C 59.6295,392.112 58.9628,394.779 58.5,397.5C 53.3802,401.651 48.3802,401.485 43.5,397C 44.1476,395.56 44.4809,394.06 44.5,392.5C 44.5,391.5 44.5,390.5 44.5,389.5C 45.3382,389.158 45.6716,388.492 45.5,387.5 Z"/></g>
<g><path style="opacity:0.251" fill="#ccdade" d="M 42.5,383.5 C 42.5,384.5 42.5,385.5 42.5,386.5C 43.791,386.263 44.791,386.596 45.5,387.5C 45.6716,388.492 45.3382,389.158 44.5,389.5C 44.1788,387.952 43.1788,387.285 41.5,387.5C 41.2322,385.901 41.5655,384.568 42.5,383.5 Z"/></g>
<g><path style="opacity:0.977" fill="#e6e6e6" d="M 44.5,392.5 C 44.4809,394.06 44.1476,395.56 43.5,397C 48.3802,401.485 53.3802,401.651 58.5,397.5C 63.809,402.81 64.809,408.976 61.5,416C 41.4877,416.715 21.4877,416.549 1.5,415.5C 0.0264928,412.673 0.359826,410.173 2.5,408C 7.15005,406.669 11.8167,405.335 16.5,404C 25.7526,399.863 35.086,396.03 44.5,392.5 Z"/></g>
</svg>
