<?xml version="1.0" encoding="UTF-8"?>
<!DOCTYPE svg PUBLIC "-//W3C//DTD SVG 1.1//EN" "http://www.w3.org/Graphics/SVG/1.1/DTD/svg11.dtd">
<svg xmlns="http://www.w3.org/2000/svg" version="1.1" width="281px" height="440px" style="shape-rendering:geometricPrecision; text-rendering:geometricPrecision; image-rendering:optimizeQuality; fill-rule:evenodd; clip-rule:evenodd" xmlns:xlink="http://www.w3.org/1999/xlink">
<g><path style="opacity:0.999" fill="#669d8d" d="M 147.5,63.5 C 146.209,61.051 145.209,58.3844 144.5,55.5C 147.998,53.5091 149.498,50.5091 149,46.5C 145.412,42.6073 141.746,42.6073 138,46.5C 136.121,44.4732 134.954,42.1398 134.5,39.5C 137.271,39.5793 139.937,39.0793 142.5,38C 139.167,37.6667 135.833,37.3333 132.5,37C 131.139,35.4157 130.472,33.5824 130.5,31.5C 128.143,31.3367 125.81,31.5034 123.5,32C 120.266,34.4667 116.599,35.6334 112.5,35.5C 112.737,36.791 112.404,37.791 111.5,38.5C 110.895,36.9743 109.729,35.9743 108,35.5C 107.349,33.765 107.515,32.0983 108.5,30.5C 99.7207,23.1688 101.054,18.8354 112.5,17.5C 112.211,13.8936 112.544,10.3936 113.5,7C 116.084,6.91815 118.417,7.75148 120.5,9.5C 125.182,3.68845 130.515,3.02179 136.5,7.5C 146.187,1.92811 152.02,4.59478 154,15.5C 166.278,11.952 170.111,16.2853 165.5,28.5C 173.494,31.9713 174.494,36.8047 168.5,43C 169.576,44.7261 169.743,46.5594 169,48.5C 164.692,51.4861 160.692,54.8194 157,58.5C 157.593,63.873 155.093,65.7063 149.5,64C 148.744,62.6197 148.078,62.453 147.5,63.5 Z"/></g>
<g><path style="opacity:0.999" fill="#284251" d="M 147.5,63.5 C 148.422,67.1119 149.089,70.7785 149.5,74.5C 143.833,74.5 138.167,74.5 132.5,74.5C 132.785,72.712 132.452,71.0453 131.5,69.5C 126.517,72.4427 121.184,73.6094 115.5,73C 114.667,72.1667 113.833,71.3333 113,70.5C 109.212,59.9379 108.712,49.2713 111.5,38.5C 112.404,37.791 112.737,36.791 112.5,35.5C 116.599,35.6334 120.266,34.4667 123.5,32C 125.81,31.5034 128.143,31.3367 130.5,31.5C 130.472,33.5824 131.139,35.4157 132.5,37C 135.833,37.3333 139.167,37.6667 142.5,38C 139.937,39.0793 137.271,39.5793 134.5,39.5C 134.954,42.1398 136.121,44.4732 138,46.5C 141.746,42.6073 145.412,42.6073 149,46.5C 149.498,50.5091 147.998,53.5091 144.5,55.5C 145.209,58.3844 146.209,61.051 147.5,63.5 Z"/></g>
<g><path style="opacity:0.994" fill="#4e51ba" d="M 132.5,74.5 C 138.167,74.5 143.833,74.5 149.5,74.5C 151.415,74.2155 153.081,74.5489 154.5,75.5C 144.5,75.5 134.5,75.5 124.5,75.5C 124.768,77.099 124.434,78.4324 123.5,79.5C 123.5,77.8333 123.5,76.1667 123.5,74.5C 126.5,74.5 129.5,74.5 132.5,74.5 Z"/></g>
<g><path style="opacity:1" fill="#252acf" d="M 154.5,75.5 C 155.167,75.5 155.5,75.8333 155.5,76.5C 155.427,78.0269 156.094,79.0269 157.5,79.5C 171.506,101.694 179.006,126.028 180,152.5C 183.381,162.931 187.048,173.264 191,183.5C 194.484,196.587 194.15,209.587 190,222.5C 186.379,222.642 182.545,222.642 178.5,222.5C 166.8,223.254 155.133,224.421 143.5,226C 134.84,226.5 126.173,226.666 117.5,226.5C 113.49,225.325 109.823,223.325 106.5,220.5C 103.937,216.044 101.937,211.377 100.5,206.5C 99.008,199.599 98.3413,192.599 98.5,185.5C 73.98,183.549 50.98,176.549 29.5,164.5C 28.4083,157.859 29.4083,151.526 32.5,145.5C 34.4247,140.084 36.758,134.751 39.5,129.5C 39.56,128.957 39.8933,128.624 40.5,128.5C 61.3396,137.068 83.0062,141.401 105.5,141.5C 107.179,141.715 108.179,141.048 108.5,139.5C 108.5,139.167 108.5,138.833 108.5,138.5C 111.742,130.015 114.408,121.348 116.5,112.5C 119.471,101.643 121.805,90.643 123.5,79.5C 124.434,78.4324 124.768,77.099 124.5,75.5C 134.5,75.5 144.5,75.5 154.5,75.5 Z"/></g>
<g><path style="opacity:0.486" fill="#9f9be9" d="M 155.5,76.5 C 156.906,76.9731 157.573,77.9731 157.5,79.5C 156.094,79.0269 155.427,78.0269 155.5,76.5 Z"/></g>
<g><path style="opacity:0.994" fill="#374d5d" d="M 79.5,102.5 C 78.1779,102.33 77.0113,102.663 76,103.5C 74.2282,106.71 72.7282,110.044 71.5,113.5C 69.8624,112.343 68.1957,111.176 66.5,110C 59.5392,108.684 53.2058,106.017 47.5,102C 49.7693,99.9771 52.4359,99.1437 55.5,99.5C 53.7788,93.7265 51.7788,88.0598 49.5,82.5C 51.1992,82.3398 52.8659,82.5065 54.5,83C 60.8021,88.3009 66.8021,93.9675 72.5,100C 74.1096,101.495 75.7763,101.661 77.5,100.5C 78.5223,100.855 79.189,101.522 79.5,102.5 Z"/></g>
<g><path style="opacity:0.999" fill="#2d2da5" d="M 79.5,102.5 C 90.4665,108.48 102.133,112.48 114.5,114.5C 115.182,113.757 115.849,113.091 116.5,112.5C 114.408,121.348 111.742,130.015 108.5,138.5C 99.497,137.325 91.497,133.991 84.5,128.5C 84.0269,127.094 83.0269,126.427 81.5,126.5C 81.0269,125.094 80.0269,124.427 78.5,124.5C 77.5,124.167 76.8333,123.5 76.5,122.5C 76.0269,121.094 75.0269,120.427 73.5,120.5C 69.4754,118.889 68.8087,116.556 71.5,113.5C 72.7282,110.044 74.2282,106.71 76,103.5C 77.0113,102.663 78.1779,102.33 79.5,102.5 Z"/></g>
<g><path style="opacity:0.994" fill="#334a59" d="M 39.5,129.5 C 36.758,134.751 34.4247,140.084 32.5,145.5C 32.5299,144.503 32.0299,143.836 31,143.5C 22.3361,141.837 15.0027,137.837 9,131.5C 5.41879,127.091 4.08545,122.091 5,116.5C 5.72472,115.941 6.55805,115.608 7.5,115.5C 13.1179,117.958 18.6179,120.625 24,123.5C 25.3919,120.722 25.8919,117.722 25.5,114.5C 27.9032,114.393 29.7365,115.393 31,117.5C 32.7248,120.674 34.0581,124.007 35,127.5C 36.3297,128.582 37.8297,129.249 39.5,129.5 Z"/></g>
<g><path style="opacity:0.494" fill="#9c99d4" d="M 73.5,120.5 C 75.0269,120.427 76.0269,121.094 76.5,122.5C 74.9731,122.573 73.9731,121.906 73.5,120.5 Z"/></g>
<g><path style="opacity:0.486" fill="#9c99d4" d="M 78.5,124.5 C 80.0269,124.427 81.0269,125.094 81.5,126.5C 79.9731,126.573 78.9731,125.906 78.5,124.5 Z"/></g>
<g><path style="opacity:0.494" fill="#9996d3" d="M 81.5,126.5 C 83.0269,126.427 84.0269,127.094 84.5,128.5C 82.9731,128.573 81.9731,127.906 81.5,126.5 Z"/></g>
<g><path style="opacity:0.757" fill="#9794e8" d="M 108.5,139.5 C 108.179,141.048 107.179,141.715 105.5,141.5C 106.29,140.599 107.29,139.932 108.5,139.5 Z"/></g>
<g><path style="opacity:1" fill="#6ba2ad" d="M 100.5,206.5 C 101.937,211.377 103.937,216.044 106.5,220.5C 109.823,223.325 113.49,225.325 117.5,226.5C 116.223,227.694 115.556,229.36 115.5,231.5C 117.726,254.857 121.893,277.857 128,300.5C 130.498,306.99 133.832,312.99 138,318.5C 138.49,319.793 138.657,321.127 138.5,322.5C 133.275,353.518 127.941,384.518 122.5,415.5C 106.876,413.504 91.2094,411.838 75.5,410.5C 72.2231,409.367 68.7231,408.701 65,408.5C 62.8794,408.698 61.0461,409.364 59.5,410.5C 59.1788,408.952 58.1788,408.285 56.5,408.5C 70.5661,340.917 85.2327,273.584 100.5,206.5 Z"/></g>
<g><path style="opacity:1" fill="#8ac5cc" d="M 178.5,222.5 C 179.343,240.967 181.176,259.3 184,277.5C 206.464,302.966 229.297,328.132 252.5,353C 251.177,353.816 250.511,354.983 250.5,356.5C 248.692,355.683 247.192,356.35 246,358.5C 243.5,361.667 241,364.833 238.5,368C 239.056,368.383 239.389,368.883 239.5,369.5C 237.629,369.859 236.129,370.859 235,372.5C 227.333,381.833 219.667,391.167 212,400.5C 210.867,402.211 209.367,402.711 207.5,402C 183.463,376.149 160.463,349.649 138.5,322.5C 138.657,321.127 138.49,319.793 138,318.5C 133.832,312.99 130.498,306.99 128,300.5C 121.893,277.857 117.726,254.857 115.5,231.5C 115.556,229.36 116.223,227.694 117.5,226.5C 126.173,226.666 134.84,226.5 143.5,226C 155.133,224.421 166.8,223.254 178.5,222.5 Z"/></g>
<g><path style="opacity:1" fill="#2c4554" d="M 250.5,356.5 C 254.833,359.833 259.167,363.167 263.5,366.5C 261.226,374.8 256.226,377.467 248.5,374.5C 245.331,373.083 242.331,371.417 239.5,369.5C 239.389,368.883 239.056,368.383 238.5,368C 241,364.833 243.5,361.667 246,358.5C 247.192,356.35 248.692,355.683 250.5,356.5 Z"/></g>
<g><path style="opacity:0.985" fill="#e6e6e6" d="M 248.5,374.5 C 256.226,377.467 261.226,374.8 263.5,366.5C 263.866,365.305 264.699,364.639 266,364.5C 272.331,366.189 276.664,369.855 279,375.5C 266.5,390 254,404.5 241.5,419C 237.579,419.765 235.245,418.098 234.5,414C 240.461,401.34 245.128,388.173 248.5,374.5 Z"/></g>
<g><path style="opacity:1" fill="#2a4353" d="M 75.5,410.5 C 74.6295,413.112 73.9628,415.779 73.5,418.5C 68.3802,422.651 63.3802,422.485 58.5,418C 59.1476,416.56 59.4809,415.06 59.5,413.5C 59.5,412.5 59.5,411.5 59.5,410.5C 61.0461,409.364 62.8794,408.698 65,408.5C 68.7231,408.701 72.2231,409.367 75.5,410.5 Z"/></g>
<g><path style="opacity:0.973" fill="#e6e6e6" d="M 59.5,413.5 C 59.4809,415.06 59.1476,416.56 58.5,418C 63.3802,422.485 68.3802,422.651 73.5,418.5C 76.7676,421.087 78.4342,424.587 78.5,429C 78.5553,432.147 77.5553,434.814 75.5,437C 56.1488,436.997 36.8155,436.997 17.5,437C 16.1667,434.333 16.1667,431.667 17.5,429C 29.0089,426.083 40.0089,421.75 50.5,416C 53.0023,414.568 55.5023,414.402 58,415.5C 58.2784,414.584 58.7784,413.918 59.5,413.5 Z"/></g>
</svg>
