<?xml version="1.0" encoding="UTF-8"?>
<!DOCTYPE svg PUBLIC "-//W3C//DTD SVG 1.1//EN" "http://www.w3.org/Graphics/SVG/1.1/DTD/svg11.dtd">
<svg xmlns="http://www.w3.org/2000/svg" version="1.1" width="275px" height="422px" style="shape-rendering:geometricPrecision; text-rendering:geometricPrecision; image-rendering:optimizeQuality; fill-rule:evenodd; clip-rule:evenodd" xmlns:xlink="http://www.w3.org/1999/xlink">
<g><path style="opacity:0.998" fill="#669d8d" d="M 140.5,41.5 C 136.606,39.9107 136.106,37.9107 139,35.5C 140.69,28.8668 138.356,26.2002 132,27.5C 130.114,24.758 127.614,23.0913 124.5,22.5C 124.665,20.1732 125.331,18.0065 126.5,16C 130.541,15.8265 134.541,15.3265 138.5,14.5C 128.508,13.6309 118.508,12.9642 108.5,12.5C 108.852,6.3111 112.186,2.8111 118.5,2C 129.807,-0.982347 139.64,1.51765 148,9.5C 151.699,18.7862 151.032,27.7862 146,36.5C 144.621,38.7147 142.787,40.3813 140.5,41.5 Z"/></g>
<g><path style="opacity:0.998" fill="#2a4354" d="M 108.5,12.5 C 118.508,12.9642 128.508,13.6309 138.5,14.5C 134.541,15.3265 130.541,15.8265 126.5,16C 125.331,18.0065 124.665,20.1732 124.5,22.5C 127.614,23.0913 130.114,24.758 132,27.5C 138.356,26.2002 140.69,28.8668 139,35.5C 136.106,37.9107 136.606,39.9107 140.5,41.5C 141.883,46.4158 142.883,51.4158 143.5,56.5C 146.713,56.19 149.713,56.5233 152.5,57.5C 141.833,57.5 131.167,57.5 120.5,57.5C 122.265,56.5386 124.265,56.2053 126.5,56.5C 126.785,54.712 126.452,53.0453 125.5,51.5C 120.517,54.4427 115.184,55.6094 109.5,55C 108.667,54.1667 107.833,53.3333 107,52.5C 102.101,38.8357 102.601,25.5024 108.5,12.5 Z"/></g>
<g><path style="opacity:0.992" fill="#374d5d" d="M 32.5,48.5 C 31.7339,53.339 30.7339,58.0057 29.5,62.5C 29.4257,60.5891 28.4257,59.4224 26.5,59C 19.3155,58.4986 12.3155,57.1653 5.5,55C 5.16667,54.6667 4.83333,54.3333 4.5,54C 6.02608,52.1129 8.02608,51.1129 10.5,51C 11.0219,50.4387 11.3552,49.772 11.5,49C 8.38194,44.6028 5.38194,40.1028 2.5,35.5C 4.42131,34.359 6.42131,34.1923 8.5,35C 15.3398,38.2502 21.6731,42.2502 27.5,47C 29.1545,47.6077 30.8211,48.1077 32.5,48.5 Z"/></g>
<g><path style="opacity:1" fill="#252bcf" d="M 120.5,57.5 C 131.167,57.5 141.833,57.5 152.5,57.5C 153.458,57.9528 154.292,58.6195 155,59.5C 177.132,104.662 186.632,152.329 183.5,202.5C 179.833,202.5 176.167,202.5 172.5,202.5C 158.76,202.946 145.093,202.446 131.5,201C 127.388,199.221 124.222,196.388 122,192.5C 119.374,186.962 117.54,181.295 116.5,175.5C 115.287,151.511 117.62,127.844 123.5,104.5C 113.496,104.104 103.496,102.771 93.5,100.5C 70.2341,93.7833 48.7341,83.45 29,69.5C 28.4436,67.1152 28.6103,64.7819 29.5,62.5C 30.7339,58.0057 31.7339,53.339 32.5,48.5C 32.9169,47.8761 33.5836,47.5427 34.5,47.5C 62.616,55.431 91.2826,58.7644 120.5,57.5 Z"/></g>
<g><path style="opacity:0.999" fill="#2a2ba4" d="M 93.5,100.5 C 103.496,102.771 113.496,104.104 123.5,104.5C 120.102,104.18 116.768,104.513 113.5,105.5C 109.96,119.332 105.96,132.999 101.5,146.5C 86.3369,154.946 70.5035,161.946 54,167.5C 51.5705,165.578 49.7372,163.245 48.5,160.5C 45.016,157.361 42.3494,153.694 40.5,149.5C 60.4587,136.051 78.4587,120.217 94.5,102C 93.944,101.617 93.6107,101.117 93.5,100.5 Z"/></g>
<g><path style="opacity:0.657" fill="#eeeef1" d="M 123.5,104.5 C 117.62,127.844 115.287,151.511 116.5,175.5C 109.833,176.167 103.167,176.833 96.5,177.5C 94.0523,177.915 92.7189,176.915 92.5,174.5C 95.5077,165.124 98.5077,155.791 101.5,146.5C 105.96,132.999 109.96,119.332 113.5,105.5C 116.768,104.513 120.102,104.18 123.5,104.5 Z M 115.5,108.5 C 116.797,109.849 116.63,111.182 115,112.5C 114.805,111.181 114.972,109.847 115.5,108.5 Z M 111.5,127.5 C 112.788,129.035 112.788,130.701 111.5,132.5C 110.948,130.997 110.948,129.331 111.5,127.5 Z"/></g>
<g><path style="opacity:0.996" fill="#364c5c" d="M 40.5,149.5 C 42.3494,153.694 45.016,157.361 48.5,160.5C 42.2053,165.624 36.0387,170.957 30,176.5C 29.0565,175.737 28.5565,174.737 28.5,173.5C 29.1556,171.547 29.4889,169.547 29.5,167.5C 24.1563,167.666 18.8229,167.499 13.5,167C 12.5494,166.282 12.3828,165.449 13,164.5C 20.117,159.527 27.9504,156.027 36.5,154C 38.286,152.804 39.6193,151.304 40.5,149.5 Z"/></g>
<g><path style="opacity:1" fill="#6ba2ad" d="M 132.5,304.5 C 127.275,335.518 121.941,366.518 116.5,397.5C 100.864,395.615 85.1977,393.948 69.5,392.5C 66.2231,391.367 62.7231,390.701 59,390.5C 56.8794,390.698 55.0461,391.364 53.5,392.5C 53.1788,390.952 52.1788,390.285 50.5,390.5C 65.4708,319.636 80.8041,248.97 96.5,178.5C 99.3915,177.597 102.391,177.264 105.5,177.5C 108.068,212.975 113.568,247.975 122,282.5C 124.498,288.99 127.832,294.99 132,300.5C 132.49,301.793 132.657,303.127 132.5,304.5 Z"/></g>
<g><path style="opacity:1" fill="#8ac5cc" d="M 116.5,175.5 C 117.54,181.295 119.374,186.962 122,192.5C 124.222,196.388 127.388,199.221 131.5,201C 145.093,202.446 158.76,202.946 172.5,202.5C 173.524,218.498 174.69,234.498 176,250.5C 176.206,253.623 176.873,256.623 178,259.5C 199.597,284.433 221.93,308.767 245,332.5C 245.49,334.545 245.323,336.545 244.5,338.5C 243.883,338.389 243.383,338.056 243,337.5C 239.287,341.708 235.787,346.041 232.5,350.5C 223.531,360.977 214.698,371.644 206,382.5C 204.867,384.211 203.367,384.711 201.5,384C 177.515,358.194 154.515,331.694 132.5,304.5C 132.657,303.127 132.49,301.793 132,300.5C 127.832,294.99 124.498,288.99 122,282.5C 113.568,247.975 108.068,212.975 105.5,177.5C 102.391,177.264 99.3915,177.597 96.5,178.5C 96.5,178.167 96.5,177.833 96.5,177.5C 103.167,176.833 109.833,176.167 116.5,175.5 Z"/></g>
<g><path style="opacity:1" fill="#2d4555" d="M 244.5,338.5 C 248.833,341.833 253.167,345.167 257.5,348.5C 255.226,356.8 250.226,359.467 242.5,356.5C 238.827,355 235.494,353 232.5,350.5C 235.787,346.041 239.287,341.708 243,337.5C 243.383,338.056 243.883,338.389 244.5,338.5 Z"/></g>
<g><path style="opacity:0.985" fill="#e6e6e6" d="M 242.5,356.5 C 250.226,359.467 255.226,356.8 257.5,348.5C 257.866,347.305 258.699,346.639 260,346.5C 265.758,348.086 270.258,351.419 273.5,356.5C 261.021,371.48 248.354,386.314 235.5,401C 231.771,401.783 229.437,400.283 228.5,396.5C 229.555,392.722 231.388,389.389 234,386.5C 236.529,376.38 239.362,366.38 242.5,356.5 Z"/></g>
<g><path style="opacity:1" fill="#2a4353" d="M 69.5,392.5 C 68.696,395.579 67.696,398.579 66.5,401.5C 61.4885,404.523 56.8218,404.023 52.5,400C 53.1476,398.56 53.4809,397.06 53.5,395.5C 53.5,394.5 53.5,393.5 53.5,392.5C 55.0461,391.364 56.8794,390.698 59,390.5C 62.7231,390.701 66.2231,391.367 69.5,392.5 Z"/></g>
<g><path style="opacity:0.971" fill="#e6e6e6" d="M 53.5,395.5 C 53.4809,397.06 53.1476,398.56 52.5,400C 56.8218,404.023 61.4885,404.523 66.5,401.5C 69.8884,401.874 71.7218,403.874 72,407.5C 72.7131,411.507 72.2131,415.34 70.5,419C 51.1395,419.227 31.8061,419.227 12.5,419C 9.6848,416.471 9.35146,413.804 11.5,411C 23.0255,408.073 34.0255,403.74 44.5,398C 47.5196,397.099 50.5196,396.266 53.5,395.5 Z"/></g>
</svg>
