<?xml version="1.0" standalone="no"?>
<!DOCTYPE svg PUBLIC "-//W3C//DTD SVG 20010904//EN"
 "http://www.w3.org/TR/2001/REC-SVG-20010904/DTD/svg10.dtd">
<svg version="1.0" xmlns="http://www.w3.org/2000/svg"
 width="115.000000pt" height="102.000000pt" viewBox="0 0 115.000000 102.000000"
 preserveAspectRatio="xMidYMid meet">

<g transform="translate(0.000000,102.000000) scale(0.100000,-0.100000)"
fill="#000000" stroke="none">
<path d="M430 711 c-202 -65 -336 -217 -365 -412 -11 -71 3 -79 131 -79 58 0
114 4 124 10 10 5 26 32 35 59 22 69 93 134 163 151 118 28 231 -39 271 -163
7 -20 21 -42 31 -47 10 -6 66 -10 124 -10 127 0 141 9 131 77 -37 250 -254
434 -509 432 -49 0 -103 -7 -136 -18z"/>
</g>
</svg>
