<?xml version="1.0" encoding="UTF-8"?>
<!DOCTYPE svg PUBLIC "-//W3C//DTD SVG 1.1//EN" "http://www.w3.org/Graphics/SVG/1.1/DTD/svg11.dtd">
<svg xmlns="http://www.w3.org/2000/svg" version="1.1" width="500px" height="499px" style="shape-rendering:geometricPrecision; text-rendering:geometricPrecision; image-rendering:optimizeQuality; fill-rule:evenodd; clip-rule:evenodd" xmlns:xlink="http://www.w3.org/1999/xlink">
<g><path style="opacity:0.227" fill="#d3d8db" d="M 272.5,39.5 C 269.43,39.3677 266.43,39.701 263.5,40.5C 263.611,39.8826 263.944,39.3826 264.5,39C 267.367,38.1993 270.034,38.3659 272.5,39.5 Z"/></g>
<g><path style="opacity:1" fill="#253e4e" d="M 276.5,38.5 C 286.432,40.822 296.432,42.4887 306.5,43.5C 308.305,45.1969 310.639,46.0302 313.5,46C 314.705,47.3756 316.038,48.5423 317.5,49.5C 318.785,51.4516 320.451,53.1182 322.5,54.5C 322.5,55.5 322.5,56.5 322.5,57.5C 323.5,57.5 324.5,57.5 325.5,57.5C 325.973,58.9063 326.973,59.573 328.5,59.5C 329.371,62.1123 330.037,64.779 330.5,67.5C 330.555,71.2979 330.888,74.7979 331.5,78C 330.707,79.0852 330.04,80.2519 329.5,81.5C 330.585,84.773 330.752,88.1064 330,91.5C 329.617,92.056 329.117,92.3893 328.5,92.5C 326.656,94.2789 325.99,96.6122 326.5,99.5C 325.167,100.167 324.167,101.167 323.5,102.5C 321.167,103.833 318.833,103.833 316.5,102.5C 316.189,101.522 315.522,100.855 314.5,100.5C 311.916,101.393 309.249,101.726 306.5,101.5C 304.646,100.759 302.979,99.759 301.5,98.5C 300.209,98.2627 299.209,98.596 298.5,99.5C 296.517,96.2006 295.517,92.5339 295.5,88.5C 299.285,87.3591 301.285,84.6925 301.5,80.5C 299.973,74.8098 296.306,72.9764 290.5,75C 289.695,76.9717 288.361,78.4717 286.5,79.5C 285.522,79.0233 284.689,78.3567 284,77.5C 283.286,74.4055 282.286,71.4055 281,68.5C 277.444,66.5728 273.944,64.5728 270.5,62.5C 265.722,66.0669 263.055,70.7336 262.5,76.5C 262.5,75.5 262.5,74.5 262.5,73.5C 260.856,73.7135 259.356,73.3802 258,72.5C 258.101,67.6486 257.934,62.9819 257.5,58.5C 256.5,58.1667 255.833,57.5 255.5,56.5C 255.5,53.5 255.5,50.5 255.5,47.5C 258.204,47.3304 259.871,45.9971 260.5,43.5C 260.856,41.8102 261.856,40.8102 263.5,40.5C 266.43,39.701 269.43,39.3677 272.5,39.5C 274.128,40.8528 275.462,40.5195 276.5,38.5 Z"/></g>
<g><path style="opacity:0.169" fill="#cad0d4" d="M 276.5,38.5 C 275.462,40.5195 274.128,40.8528 272.5,39.5C 273.833,39.1667 275.167,38.8333 276.5,38.5 Z"/></g>
<g><path style="opacity:0.122" fill="#d1d7da" d="M 276.5,38.5 C 279.64,37.3592 282.973,37.1925 286.5,38C 291.551,40.73 296.884,41.73 302.5,41C 304.32,41.2004 305.653,42.0337 306.5,43.5C 296.432,42.4887 286.432,40.822 276.5,38.5 Z"/></g>
<g><path style="opacity:0.349" fill="#c6cdd1" d="M 260.5,43.5 C 259.871,45.9971 258.204,47.3304 255.5,47.5C 256.945,45.9373 258.611,44.604 260.5,43.5 Z"/></g>
<g><path style="opacity:0.004" fill="#cdd3d6" d="M 306.5,43.5 C 309.074,43.156 311.741,43.656 314.5,45C 316.141,46.129 317.141,47.629 317.5,49.5C 316.038,48.5423 314.705,47.3756 313.5,46C 310.639,46.0302 308.305,45.1969 306.5,43.5 Z"/></g>
<g><path style="opacity:0.851" fill="#98a4ab" d="M 255.5,47.5 C 255.5,50.5 255.5,53.5 255.5,56.5C 252.833,53.5 252.833,50.5 255.5,47.5 Z"/></g>
<g><path style="opacity:0.392" fill="#cfd5d8" d="M 317.5,49.5 C 320.189,50.1894 321.856,51.856 322.5,54.5C 320.451,53.1182 318.785,51.4516 317.5,49.5 Z"/></g>
<g><path style="opacity:0.259" fill="#c4cbcf" d="M 322.5,54.5 C 323.5,55.5 324.5,56.5 325.5,57.5C 324.5,57.5 323.5,57.5 322.5,57.5C 322.5,56.5 322.5,55.5 322.5,54.5 Z"/></g>
<g><path style="opacity:0.09" fill="#c0c7cc" d="M 325.5,57.5 C 327.027,57.427 328.027,58.0937 328.5,59.5C 326.973,59.573 325.973,58.9063 325.5,57.5 Z"/></g>
<g><path style="opacity:0.005" fill="#e2e5e8" d="M 328.5,59.5 C 331.34,61.7151 332.007,64.3818 330.5,67.5C 330.037,64.779 329.371,62.1123 328.5,59.5 Z"/></g>
<g><path style="opacity:1" fill="#020303" d="M 298.5,99.5 C 298.259,101.898 298.926,103.898 300.5,105.5C 300.5,106.833 300.5,108.167 300.5,109.5C 295.468,110.173 290.468,111.173 285.5,112.5C 284.287,112.253 283.62,111.586 283.5,110.5C 284.8,107.976 284.8,105.309 283.5,102.5C 278.536,105.547 273.203,107.047 267.5,107C 264.235,103.117 262.568,98.6169 262.5,93.5C 262.5,88.5 262.5,83.5 262.5,78.5C 262.5,77.8333 262.5,77.1667 262.5,76.5C 263.055,70.7336 265.722,66.0669 270.5,62.5C 273.944,64.5728 277.444,66.5728 281,68.5C 282.286,71.4055 283.286,74.4055 284,77.5C 284.689,78.3567 285.522,79.0233 286.5,79.5C 288.361,78.4717 289.695,76.9717 290.5,75C 296.306,72.9764 299.973,74.8098 301.5,80.5C 301.285,84.6925 299.285,87.3591 295.5,88.5C 295.517,92.5339 296.517,96.2006 298.5,99.5 Z"/></g>
<g><path style="opacity:0.753" fill="#94a0a7" d="M 257.5,58.5 C 257.934,62.9819 258.101,67.6486 258,72.5C 259.356,73.3802 260.856,73.7135 262.5,73.5C 262.5,74.5 262.5,75.5 262.5,76.5C 262.5,77.1667 262.5,77.8333 262.5,78.5C 262.167,78.5 261.833,78.5 261.5,78.5C 261.657,77.1266 261.49,75.7932 261,74.5C 258.383,75.0896 256.55,73.923 255.5,71C 255.903,69.5272 256.57,68.1939 257.5,67C 254.885,64.0931 254.885,61.2598 257.5,58.5 Z"/></g>
<g><path style="opacity:0.752" fill="#828282" d="M 261.5,78.5 C 261.833,78.5 262.167,78.5 262.5,78.5C 262.5,83.5 262.5,88.5 262.5,93.5C 262.167,93.5 261.833,93.5 261.5,93.5C 260.231,88.5141 260.231,83.5141 261.5,78.5 Z"/></g>
<g><path style="opacity:0.788" fill="#97a3ab" d="M 328.5,92.5 C 327.797,93.8067 327.797,95.3067 328.5,97C 328.316,98.3756 327.649,99.2089 326.5,99.5C 325.99,96.6122 326.656,94.2789 328.5,92.5 Z"/></g>
<g><path style="opacity:0.024" fill="#bac2c7" d="M 316.5,102.5 C 314.453,102.511 312.453,102.844 310.5,103.5C 308.829,103.332 307.496,102.665 306.5,101.5C 309.249,101.726 311.916,101.393 314.5,100.5C 315.522,100.855 316.189,101.522 316.5,102.5 Z"/></g>
<g><path style="opacity:0.059" fill="#c8cfd3" d="M 326.5,99.5 C 326.5,101.5 325.5,102.5 323.5,102.5C 324.167,101.167 325.167,100.167 326.5,99.5 Z"/></g>
<g><path style="opacity:0.098" fill="#d6d7d7" d="M 301.5,98.5 C 301.082,99.2216 300.416,99.7216 299.5,100C 300.406,101.699 300.739,103.533 300.5,105.5C 298.926,103.898 298.259,101.898 298.5,99.5C 299.209,98.596 300.209,98.2627 301.5,98.5 Z"/></g>
<g><path style="opacity:0.129" fill="#b3b3b3" d="M 261.5,93.5 C 261.833,93.5 262.167,93.5 262.5,93.5C 262.568,98.6169 264.235,103.117 267.5,107C 273.203,107.047 278.536,105.547 283.5,102.5C 284.8,105.309 284.8,107.976 283.5,110.5C 283.414,108.606 283.081,106.606 282.5,104.5C 268.893,112.967 261.893,109.301 261.5,93.5 Z"/></g>
<g><path style="opacity:1" fill="#c5cfd6" d="M 300.5,105.5 C 344.574,148.978 371.241,201.645 380.5,263.5C 380.167,263.5 379.833,263.5 379.5,263.5C 377.19,262.836 374.69,262.503 372,262.5C 369.071,262.525 366.571,263.191 364.5,264.5C 353.576,263.358 342.576,263.191 331.5,264C 330.62,265.356 330.286,266.856 330.5,268.5C 329.539,266.735 329.205,264.735 329.5,262.5C 328.167,262.5 326.833,262.5 325.5,262.5C 324.862,250.497 324.196,238.497 323.5,226.5C 303.5,226.5 283.5,226.5 263.5,226.5C 260.5,226.5 257.5,226.5 254.5,226.5C 254.706,229.495 254.04,232.162 252.5,234.5C 252.674,232.139 253.007,229.806 253.5,227.5C 252.178,227.67 251.011,227.337 250,226.5C 249.919,222.968 250.419,219.468 251.5,216C 251.316,214.624 250.649,213.791 249.5,213.5C 251.103,212.404 252.603,211.07 254,209.5C 261.517,188.603 267.017,167.103 270.5,145C 270.062,143.08 269.395,141.246 268.5,139.5C 267.388,141.419 266.054,143.086 264.5,144.5C 268.522,135.26 271.022,125.593 272,115.5C 274.596,113.98 277.429,113.147 280.5,113C 281.691,112.302 282.691,111.469 283.5,110.5C 283.62,111.586 284.287,112.253 285.5,112.5C 290.468,111.173 295.468,110.173 300.5,109.5C 300.5,108.167 300.5,106.833 300.5,105.5 Z"/></g>
<g><path style="opacity:1" fill="#b1bbc6" d="M 249.5,213.5 C 234.566,221.942 218.4,225.942 201,225.5C 195.12,225.491 189.287,224.991 183.5,224C 184.255,211.536 185.922,199.036 188.5,186.5C 188.137,185.817 187.804,185.15 187.5,184.5C 188.693,184.03 189.36,183.03 189.5,181.5C 190.162,178.532 190.495,175.532 190.5,172.5C 187.813,172.664 185.146,172.497 182.5,172C 181.944,171.617 181.611,171.117 181.5,170.5C 198.951,173.92 216.284,173.753 233.5,170C 247.038,165.287 257.371,156.787 264.5,144.5C 266.054,143.086 267.388,141.419 268.5,139.5C 269.395,141.246 270.062,143.08 270.5,145C 267.017,167.103 261.517,188.603 254,209.5C 252.603,211.07 251.103,212.404 249.5,213.5 Z"/></g>
<g><path style="opacity:1" fill="#171717" d="M 172.5,166.5 C 173.78,167.931 175.447,168.598 177.5,168.5C 179.153,168.66 180.486,169.326 181.5,170.5C 181.611,171.117 181.944,171.617 182.5,172C 185.146,172.497 187.813,172.664 190.5,172.5C 190.495,175.532 190.162,178.532 189.5,181.5C 189.36,183.03 188.693,184.03 187.5,184.5C 181.527,183.214 175.527,183.214 169.5,184.5C 167.133,184.158 164.8,183.658 162.5,183C 161.226,182.023 161.226,181.189 162.5,180.5C 164.255,179.928 165.922,179.094 167.5,178C 168.774,177.023 168.774,176.189 167.5,175.5C 163.982,171.483 160.315,167.649 156.5,164C 157.6,162.977 158.933,162.477 160.5,162.5C 164.797,163.266 168.797,164.599 172.5,166.5 Z"/></g>
<g><path style="opacity:0.118" fill="#c7c7c7" d="M 172.5,166.5 C 174.553,166.402 176.22,167.069 177.5,168.5C 175.447,168.598 173.78,167.931 172.5,166.5 Z"/></g>
<g><path style="opacity:1" fill="#b2bbc2" d="M 312.5,165.5 C 315.598,173.451 317.765,181.784 319,190.5C 320.911,202.122 322.411,213.788 323.5,225.5C 318.456,225.827 313.456,225.494 308.5,224.5C 310.364,216.955 311.53,209.288 312,201.5C 312.5,189.505 312.667,177.505 312.5,165.5 Z"/></g>
<g><path style="opacity:0.173" fill="#bebebe" d="M 167.5,175.5 C 168.774,176.189 168.774,177.023 167.5,178C 165.922,179.094 164.255,179.928 162.5,180.5C 163.973,178.605 165.64,176.939 167.5,175.5 Z"/></g>
<g><path style="opacity:1" fill="#8bc5cc" d="M 263.5,226.5 C 283.5,226.5 303.5,226.5 323.5,226.5C 324.196,238.497 324.862,250.497 325.5,262.5C 326.833,262.5 328.167,262.5 329.5,262.5C 329.205,264.735 329.539,266.735 330.5,268.5C 331.307,279.496 332.141,290.496 333,301.5C 333.206,304.623 333.873,307.623 335,310.5C 340.763,317.686 346.763,324.686 353,331.5C 370.248,348.744 386.748,366.577 402.5,385C 402.022,386.303 401.355,387.469 400.5,388.5C 395.766,391.903 392.099,396.236 389.5,401.5C 380.198,412.31 371.031,423.31 362,434.5C 360.951,435.517 359.784,435.684 358.5,435C 334.43,409.78 312.096,383.28 291.5,355.5C 291.158,354.662 290.492,354.328 289.5,354.5C 286.017,347.533 282.517,340.533 279,333.5C 269.683,298.448 264.516,262.781 263.5,226.5 Z"/></g>
<g><path style="opacity:1" fill="#6ba2ad" d="M 263.5,226.5 C 264.516,262.781 269.683,298.448 279,333.5C 282.517,340.533 286.017,347.533 289.5,354.5C 283.886,385.131 278.553,415.797 273.5,446.5C 260.003,445.204 246.503,443.871 233,442.5C 230.967,442.506 229.134,442.839 227.5,443.5C 227.672,444.492 227.338,445.158 226.5,445.5C 226.5,444.167 226.5,442.833 226.5,441.5C 221.807,441.46 217.141,441.127 212.5,440.5C 212.405,442.786 211.738,444.786 210.5,446.5C 210.366,444.708 210.699,443.042 211.5,441.5C 210.528,440.601 209.862,439.434 209.5,438C 210.622,433.559 211.289,429.059 211.5,424.5C 217.548,393.584 224.215,362.917 231.5,332.5C 232.117,332.389 232.617,332.056 233,331.5C 234.814,324.252 235.98,316.919 236.5,309.5C 241.326,284.368 246.659,259.368 252.5,234.5C 254.04,232.162 254.706,229.495 254.5,226.5C 257.5,226.5 260.5,226.5 263.5,226.5 Z"/></g>
<g><path style="opacity:1" fill="#484b4e" d="M 379.5,263.5 C 374.637,263.181 369.97,263.514 365.5,264.5C 365.167,264.5 364.833,264.5 364.5,264.5C 366.571,263.191 369.071,262.525 372,262.5C 374.69,262.503 377.19,262.836 379.5,263.5 Z"/></g>
<g><path style="opacity:1" fill="#0c0c0c" d="M 379.5,263.5 C 379.833,263.5 380.167,263.5 380.5,263.5C 381.933,265.558 382.6,267.892 382.5,270.5C 382.427,272.027 383.094,273.027 384.5,273.5C 385.833,275.167 387.167,276.833 388.5,278.5C 389.845,280.836 391.845,282.503 394.5,283.5C 395.507,285.522 397.174,286.855 399.5,287.5C 402.056,288.543 404.223,290.21 406,292.5C 406.74,293.749 406.573,294.749 405.5,295.5C 401.832,297.721 397.832,298.721 393.5,298.5C 391.151,296.659 388.485,295.326 385.5,294.5C 382.452,290.833 378.785,289.833 374.5,291.5C 373.5,293.167 372.167,294.5 370.5,295.5C 368.801,295.66 367.134,295.494 365.5,295C 367.93,291.544 369.263,287.71 369.5,283.5C 370.638,280.696 370.805,277.696 370,274.5C 369.617,273.944 369.117,273.611 368.5,273.5C 367.787,270.406 366.787,267.406 365.5,264.5C 369.97,263.514 374.637,263.181 379.5,263.5 Z"/></g>
<g><path style="opacity:0.086" fill="#d7d7d7" d="M 364.5,264.5 C 364.833,264.5 365.167,264.5 365.5,264.5C 366.787,267.406 367.787,270.406 368.5,273.5C 366.375,270.912 365.042,267.912 364.5,264.5 Z"/></g>
<g><path style="opacity:0.204" fill="#c1c1c1" d="M 382.5,270.5 C 383.906,270.973 384.573,271.973 384.5,273.5C 383.094,273.027 382.427,272.027 382.5,270.5 Z"/></g>
<g><path style="opacity:0.124" fill="#c4c4c4" d="M 368.5,273.5 C 369.117,273.611 369.617,273.944 370,274.5C 370.805,277.696 370.638,280.696 369.5,283.5C 369.54,280.119 369.207,276.786 368.5,273.5 Z"/></g>
<g><path style="opacity:0.706" fill="#868686" d="M 388.5,278.5 C 391.155,279.497 393.155,281.164 394.5,283.5C 391.845,282.503 389.845,280.836 388.5,278.5 Z"/></g>
<g><path style="opacity:0.694" fill="#858585" d="M 394.5,283.5 C 396.826,284.145 398.493,285.478 399.5,287.5C 397.174,286.855 395.507,285.522 394.5,283.5 Z"/></g>
<g><path style="opacity:0.212" fill="#c1c1c1" d="M 369.5,283.5 C 369.263,287.71 367.93,291.544 365.5,295C 367.134,295.494 368.801,295.66 370.5,295.5C 370.038,296.88 369.038,297.547 367.5,297.5C 365.734,297.566 364.734,296.732 364.5,295C 366.288,291.107 367.955,287.274 369.5,283.5 Z"/></g>
<g><path style="opacity:0.192" fill="#c0c0c0" d="M 374.5,291.5 C 378.785,289.833 382.452,290.833 385.5,294.5C 382.079,292.624 378.412,291.624 374.5,291.5 Z"/></g>
<g><path style="opacity:0.169" fill="#cdcdcd" d="M 385.5,294.5 C 388.485,295.326 391.151,296.659 393.5,298.5C 390.246,298.206 387.579,296.873 385.5,294.5 Z"/></g>
<g><path style="opacity:0.102" fill="#e2e2e2" d="M 405.5,295.5 C 404.64,297.614 402.973,298.78 400.5,299C 397.961,299.796 395.628,299.629 393.5,298.5C 397.832,298.721 401.832,297.721 405.5,295.5 Z"/></g>
<g><path style="opacity:0.973" fill="#a8c8ce" d="M 236.5,309.5 C 235.98,316.919 234.814,324.252 233,331.5C 232.617,332.056 232.117,332.389 231.5,332.5C 232.407,324.552 234.074,316.886 236.5,309.5 Z"/></g>
<g><path style="opacity:0.059" fill="#c5c5c5" d="M 400.5,388.5 C 402.404,388.738 403.738,389.738 404.5,391.5C 402.596,391.262 401.262,390.262 400.5,388.5 Z"/></g>
<g><path style="opacity:1" fill="#0d0d0e" d="M 400.5,388.5 C 401.262,390.262 402.596,391.262 404.5,391.5C 405.539,393.531 407.205,394.864 409.5,395.5C 410.96,397.144 412.293,398.977 413.5,401C 410.709,407.904 406.042,410.071 399.5,407.5C 398.508,407.672 397.842,407.338 397.5,406.5C 397.027,405.094 396.027,404.427 394.5,404.5C 393.508,404.672 392.842,404.338 392.5,403.5C 392.027,402.094 391.027,401.427 389.5,401.5C 392.099,396.236 395.766,391.903 400.5,388.5 Z"/></g>
<g><path style="opacity:0.055" fill="#b5b5b5" d="M 404.5,391.5 C 406.754,392.124 408.421,393.457 409.5,395.5C 407.205,394.864 405.539,393.531 404.5,391.5 Z"/></g>
<g><path style="opacity:0.995" fill="#e5e5e5" d="M 409.5,395.5 C 411.229,396.117 412.729,397.117 414,398.5C 414.667,397.833 415.333,397.167 416,396.5C 421.385,397.869 425.718,400.869 429,405.5C 429.667,406.5 429.667,407.5 429,408.5C 418.429,420.648 408.095,432.982 398,445.5C 395.651,448.017 393.151,450.35 390.5,452.5C 385.923,451.079 384.423,448.079 386,443.5C 387.333,441.5 388.667,439.5 390,437.5C 392.678,427.302 395.844,417.302 399.5,407.5C 406.042,410.071 410.709,407.904 413.5,401C 412.293,398.977 410.96,397.144 409.5,395.5 Z"/></g>
<g><path style="opacity:0.42" fill="#9f9f9f" d="M 389.5,401.5 C 391.027,401.427 392.027,402.094 392.5,403.5C 390.973,403.573 389.973,402.906 389.5,401.5 Z"/></g>
<g><path style="opacity:0.345" fill="#b6b6b6" d="M 394.5,404.5 C 396.027,404.427 397.027,405.094 397.5,406.5C 395.973,406.573 394.973,405.906 394.5,404.5 Z"/></g>
<g><path style="opacity:0.231" fill="#d5e4e7" d="M 289.5,354.5 C 290.492,354.328 291.158,354.662 291.5,355.5C 285.148,385.928 279.314,416.595 274,447.5C 273.667,447.833 273.333,448.167 273,448.5C 257.938,446.277 242.772,444.61 227.5,443.5C 229.134,442.839 230.967,442.506 233,442.5C 246.503,443.871 260.003,445.204 273.5,446.5C 278.553,415.797 283.886,385.131 289.5,354.5 Z"/></g>
<g><path style="opacity:0.388" fill="#dae7ea" d="M 211.5,424.5 C 211.289,429.059 210.622,433.559 209.5,438C 209.862,439.434 210.528,440.601 211.5,441.5C 209.654,441.778 208.32,441.111 207.5,439.5C 208.703,434.345 210.037,429.345 211.5,424.5 Z"/></g>
<g><path style="opacity:1" fill="#0f1011" d="M 226.5,445.5 C 226.737,446.791 226.404,447.791 225.5,448.5C 224.566,449.568 224.232,450.901 224.5,452.5C 220.108,453.992 215.775,453.825 211.5,452C 210.594,450.301 210.261,448.467 210.5,446.5C 211.738,444.786 212.405,442.786 212.5,440.5C 217.141,441.127 221.807,441.46 226.5,441.5C 226.5,442.833 226.5,444.167 226.5,445.5 Z"/></g>
<g><path style="opacity:0.989" fill="#e5e5e5" d="M 210.5,446.5 C 210.261,448.467 210.594,450.301 211.5,452C 215.775,453.825 220.108,453.992 224.5,452.5C 224.232,450.901 224.566,449.568 225.5,448.5C 226.139,450.76 227.306,452.76 229,454.5C 230.697,459.494 230.531,464.327 228.5,469C 209.5,469.667 190.5,469.667 171.5,469C 168.392,467.06 167.725,464.394 169.5,461C 181.056,458.055 192.056,453.721 202.5,448C 205.063,446.921 207.729,446.421 210.5,446.5 Z"/></g>
</svg>
